<?xml version="1.0" encoding="UTF-8" standalone="no"?>
<svg
   xmlns:dc="http://purl.org/dc/elements/1.1/"
   xmlns:cc="http://creativecommons.org/ns#"
   xmlns:rdf="http://www.w3.org/1999/02/22-rdf-syntax-ns#"
   xmlns:svg="http://www.w3.org/2000/svg"
   xmlns="http://www.w3.org/2000/svg"
   xmlns:sodipodi="http://sodipodi.sourceforge.net/DTD/sodipodi-0.dtd"
   xmlns:inkscape="http://www.inkscape.org/namespaces/inkscape"
   width="98.996658"
   height="31.593584"
   viewBox="0 0 98.996658 31.593584"
   fill="none"
   version="1.1"
   id="svg6"
   sodipodi:docname="Logo Okoo.svg"
   inkscape:version="1.0.1 (3bc2e813f5, 2020-09-07)">
  <metadata
     id="metadata12">
    <rdf:RDF>
      <cc:Work
         rdf:about="">
        <dc:format>image/svg+xml</dc:format>
        <dc:type
           rdf:resource="http://purl.org/dc/dcmitype/StillImage" />
        <dc:title></dc:title>
      </cc:Work>
    </rdf:RDF>
  </metadata>
  <defs
     id="defs10" />
  <sodipodi:namedview
     pagecolor="#ffffff"
     bordercolor="#666666"
     borderopacity="1"
     objecttolerance="10"
     gridtolerance="10"
     guidetolerance="10"
     inkscape:pageopacity="0"
     inkscape:pageshadow="2"
     inkscape:window-width="1600"
     inkscape:window-height="837"
     id="namedview8"
     showgrid="false"
     fit-margin-top="0"
     fit-margin-left="0"
     fit-margin-right="0"
     fit-margin-bottom="0"
     inkscape:zoom="9.7085761"
     inkscape:cx="48.464193"
     inkscape:cy="14.669342"
     inkscape:window-x="-8"
     inkscape:window-y="-8"
     inkscape:window-maximized="1"
     inkscape:current-layer="svg6" />
  <path
     d="m 11.029819,5.5575835 c 5.833,0.223 10.35,5.8079995 10.102,12.4839995 -0.249,6.677 -5.188,11.914 -11.02,11.69 -5.8339999,-0.197 -10.35099986,-5.807 -10.10199986,-12.484 0.273,-6.677 5.18699996,-11.9139995 11.01999986,-11.6899995 z m 37.502,5.2369995 -1.886,-5.2119995 -17.15,6.6019995 -0.224,-10.1019995 -7.024,0.869 1.092,28.6419995 6.553,-1.49 -0.199,-9.083 17.82,8.24 2.706,-5.808 -16.083,-7.446 z m 25.203,0.356 c -1.265,-5.6499995 -7.55,-9.0639995 -14.006,-7.6039995 -6.48,1.458 -10.682,7.2159995 -9.42,12.8899995 1.265,5.651 7.55,9.065 14.006,7.606 6.457,-1.46 10.683,-7.217 9.42,-12.892 z m 1.483,1.538 c 1.017,5.708 7.14,9.38 13.675,8.194 6.536,-1.186 10.994,-6.757 9.953,-12.4659995 -1.017,-5.708 -7.14,-9.38000004 -13.675,-8.19400004 -6.536,1.18600004 -10.994,6.75700004 -9.953,12.46599954 z"
     fill="#b481f7"
     id="path2" />
  <path
     d="m 66.719819,15.919583 a 2.02,2.02 0 0 0 2.146,-1.887 2.02,2.02 0 0 0 -1.883,-2.15 2.02,2.02 0 0 0 -2.146,1.888 2.02,2.02 0 0 0 1.883,2.15 z m 15.28,-1.837 a 2.02,2.02 0 0 0 2.145,-1.887 2.02,2.02 0 0 0 -1.883,-2.15 2.02,2.02 0 0 0 -2.145,1.888 2.02,2.02 0 0 0 1.882,2.15 z"
     fill="#000000"
     id="path4" />
</svg>
