<?xml version="1.0" standalone="no"?>
<!DOCTYPE svg PUBLIC "-//W3C//DTD SVG 20010904//EN"
 "http://www.w3.org/TR/2001/REC-SVG-20010904/DTD/svg10.dtd">
<svg version="1.0" xmlns="http://www.w3.org/2000/svg"
 width="1200.000000pt" height="630.000000pt" viewBox="0 0 1200.000000 630.000000"
 preserveAspectRatio="xMidYMid meet">

<g transform="translate(0.000000,630.000000) scale(0.100000,-0.100000)"
fill="#BF0000" stroke="none">
<path d="M4690 5274 c-397 -57 -684 -301 -786 -669 -42 -149 -44 -217 -44
-1455 0 -1239 2 -1308 44 -1455 84 -297 296 -525 577 -620 181 -62 132 -60
1519 -60 1387 0 1338 -2 1519 60 268 91 480 310 566 585 54 172 55 212 55
1490 0 1225 -3 1309 -43 1455 -86 304 -309 537 -603 629 -180 55 -198 56
-1507 55 -959 -1 -1221 -4 -1297 -15z m911 -841 l0 -138 32 39 c82 102 76 97
143 94 l62 -3 -74 -88 c-41 -49 -74 -92 -74 -96 0 -4 38 -53 85 -108 47 -56
85 -104 85 -107 0 -3 -28 -6 -62 -5 l-63 0 -65 82 -65 82 -3 -83 -3 -83 -47 3
-47 3 -3 260 c-1 143 0 265 3 272 2 8 22 13 50 13 l45 0 1 -137z m-638 82
c100 -48 125 -186 50 -275 l-25 -30 66 -89 c36 -48 66 -91 66 -95 0 -3 -26 -6
-57 -6 l-58 1 -58 79 c-54 73 -62 80 -93 80 l-34 0 0 -80 0 -80 -50 0 -50 0 0
253 c0 140 3 257 8 261 14 15 195 1 235 -19z m1407 -30 l0 -55 40 0 40 0 0
-50 0 -50 -40 0 -40 0 0 -94 c0 -104 13 -132 56 -123 18 3 29 -5 51 -35 30
-44 26 -52 -34 -64 -47 -9 -79 2 -121 41 l-37 33 -3 121 c-4 120 -4 121 -28
121 -22 0 -24 4 -24 49 0 44 3 50 23 53 19 3 22 10 25 56 l3 52 45 0 44 0 0
-55z m-977 -54 l57 0 0 -205 0 -206 -45 0 c-25 0 -45 5 -45 10 0 6 -13 4 -30
-5 -37 -19 -71 -19 -118 0 -82 35 -121 102 -122 205 0 54 5 74 30 117 40 70
85 95 160 88 30 -2 81 -4 113 -4z m1345 -5 c62 -32 102 -104 102 -181 l0 -45
-135 0 c-74 0 -135 -2 -135 -5 0 -16 33 -66 52 -79 31 -22 59 -20 100 8 35 23
35 23 71 4 21 -10 37 -22 37 -27 0 -16 -68 -69 -105 -81 -122 -40 -247 65
-247 207 0 129 71 213 180 213 29 0 65 -6 80 -14z m392 -8 c70 -48 75 -62 78
-239 l3 -159 -45 0 -46 0 0 133 c0 144 -8 169 -57 188 -28 10 -77 -10 -87 -36
-3 -9 -6 -77 -6 -151 l0 -134 -50 0 -50 0 0 206 0 205 60 -2 c33 -1 63 1 67 4
16 17 101 6 133 -15z m-1178 -129 c3 -134 4 -142 27 -160 34 -27 75 -24 100 7
19 24 21 40 21 160 l0 134 50 0 50 0 0 -206 0 -205 -62 0 c-35 1 -81 -1 -103
-4 -60 -9 -123 27 -152 85 -21 40 -23 59 -23 187 l0 143 44 0 44 0 4 -141z
m715 -345 c-3 -3 -302 -32 -664 -64 l-658 -57 -57 56 c-32 30 -58 59 -58 63 0
4 325 8 722 8 397 0 719 -3 715 -6z m-166 -254 c57 -16 102 -51 127 -100 21
-40 23 -55 19 -138 -4 -82 -9 -101 -41 -167 -40 -81 -97 -139 -171 -174 -56
-26 -80 -26 -105 -1 -24 24 -25 58 -5 107 31 74 7 133 -54 133 -78 0 -480
-166 -521 -215 -11 -14 -11 -59 6 -298 24 -352 25 -701 2 -803 -35 -155 -92
-234 -167 -234 -31 0 -44 6 -65 30 -49 59 -51 75 -77 695 -11 275 -24 503 -28
507 -9 11 -105 -14 -280 -71 -117 -39 -168 -51 -215 -51 -184 0 -270 156 -153
278 44 46 62 54 227 100 221 62 534 163 860 279 162 58 322 111 355 118 72 16
236 19 286 5z m675 -263 c23 -20 28 -34 32 -83 5 -76 -30 -187 -140 -442 -189
-440 -291 -722 -363 -997 -42 -159 -66 -209 -114 -242 -51 -34 -100 -31 -138
10 -42 44 -51 65 -123 282 -34 105 -114 318 -177 474 -130 323 -157 412 -150
484 9 103 105 144 195 85 80 -54 157 -195 258 -475 33 -89 62 -159 65 -155 4
4 23 59 44 122 141 433 273 732 381 861 80 97 171 127 230 76z"/>
<path d="M4820 4360 l0 -80 45 0 c71 0 112 53 89 115 -9 23 -57 45 -99 45
l-35 0 0 -80z"/>
<path d="M5216 4315 c-46 -49 -41 -144 11 -184 31 -25 45 -26 82 -6 52 27 67
118 28 176 -31 46 -85 53 -121 14z"/>
<path d="M6602 4327 c-38 -40 -29 -47 58 -47 44 0 80 4 80 9 0 4 -9 20 -21 35
-27 35 -86 36 -117 3z"/>
</g>
</svg>
